<?xml version="1.0" encoding="UTF-8"?>
<svg id="_レイヤー_2" data-name="レイヤー 2" xmlns="http://www.w3.org/2000/svg" xmlns:xlink="http://www.w3.org/1999/xlink" viewBox="0 0 266.32 266.32">
  <defs>
    <style>
      .cls-1 {
        letter-spacing: -.36em;
      }

      .cls-2 {
        letter-spacing: .05em;
      }

      .cls-3 {
        letter-spacing: .1em;
      }

      .cls-4 {
        letter-spacing: .05em;
      }

      .cls-5 {
        clip-path: url(#clippath);
      }

      .cls-6 {
        letter-spacing: .09em;
      }

      .cls-7 {
        letter-spacing: -.13em;
      }

      .cls-8 {
        font-size: 18px;
      }

      .cls-8, .cls-9 {
        fill: #333;
        font-family: TsukuBRdGothicStd-R-83pv-RKSJ-H, 'FOT-TsukuBRdGothic Std';
      }

      .cls-10 {
        letter-spacing: -.03em;
      }

      .cls-11 {
        fill: #ddd4c6;
      }

      .cls-12 {
        letter-spacing: .01em;
      }

      .cls-9 {
        font-size: 40px;
      }

      .cls-13 {
        clip-path: url(#clippath-1);
      }

      .cls-14 {
        stroke: #ac9780;
        stroke-linecap: round;
        stroke-width: 2px;
      }

      .cls-14, .cls-15 {
        fill: none;
        stroke-miterlimit: 10;
      }

      .cls-15 {
        stroke: #ddd4c6;
        stroke-width: 4px;
      }

      .cls-16 {
        letter-spacing: .12em;
      }

      .cls-17 {
        letter-spacing: -.05em;
      }

      .cls-18 {
        letter-spacing: -.09em;
      }
    </style>
    <clipPath id="clippath">
      <path class="cls-11" d="m253.54,217.34V48.97c-19.99,0-36.2-16.21-36.2-36.2H48.97c0,19.99-16.21,36.2-36.2,36.2v168.37c19.99,0,36.2,16.21,36.2,36.2h168.37c0-19.99,16.21-36.2,36.2-36.2Z"/>
    </clipPath>
    <clipPath id="clippath-1">
      <path class="cls-15" d="m264.32,224.88V41.44c-21.78,0-39.44-17.66-39.44-39.44H41.44c0,21.78-17.66,39.44-39.44,39.44v183.44c21.78,0,39.44,17.66,39.44,39.44h183.44c0-21.78,17.66-39.44,39.44-39.44Z"/>
    </clipPath>
  </defs>
  <g id="_レイアウト" data-name="レイアウト">
    <g>
      <g>
        <path class="cls-11" d="m253.54,217.34V48.97c-19.99,0-36.2-16.21-36.2-36.2H48.97c0,19.99-16.21,36.2-36.2,36.2v168.37c19.99,0,36.2,16.21,36.2,36.2h168.37c0-19.99,16.21-36.2,36.2-36.2Z"/>
        <g class="cls-5">
          <rect class="cls-11" x="12.78" y="12.78" width="240.77" height="240.77"/>
        </g>
      </g>
      <g>
        <g class="cls-13">
          <rect class="cls-15" x="2" y="2" width="262.32" height="262.32"/>
        </g>
        <path class="cls-15" d="m264.32,224.88V41.44c-21.78,0-39.44-17.66-39.44-39.44H41.44c0,21.78-17.66,39.44-39.44,39.44v183.44c21.78,0,39.44,17.66,39.44,39.44h183.44c0-21.78,17.66-39.44,39.44-39.44Z"/>
      </g>
      <text class="cls-9" transform="translate(53.76 87.92)"><tspan class="cls-3" x="0" y="0"> </tspan><tspan class="cls-2" x="16" y="0">つ</tspan><tspan class="cls-18" x="58" y="0">む</tspan><tspan class="cls-10" x="94.4" y="0">ぐ</tspan><tspan class="cls-1" x="133.2" y="0">。</tspan><tspan class="cls-16" x="-2" y="52.03">デ</tspan><tspan class="cls-17" x="42.8" y="52.03">ザ</tspan><tspan class="cls-7" x="80.8" y="52.03">イ</tspan><tspan class="cls-6" x="115.6" y="52.03">ン</tspan></text>
      <text class="cls-8" transform="translate(57.14 206.95)"><tspan class="cls-12" x="0" y="0">T</tspan><tspan class="cls-4" x="12.51" y="0">sumugu Design</tspan></text>
      <line class="cls-14" x1="42.52" y1="165.33" x2="223.8" y2="165.33"/>
    </g>
  </g>
</svg>