<?xml version="1.0" encoding="UTF-8"?>
<svg id="_レイヤー_2" data-name="レイヤー 2" xmlns="http://www.w3.org/2000/svg" xmlns:xlink="http://www.w3.org/1999/xlink" viewBox="0 0 312.96 303.26">
  <defs>
    <style>
      .cls-1 {
        fill: none;
      }

      .cls-2 {
        clip-path: url(#clippath);
      }

      .cls-3 {
        fill: #f1eee8;
      }
    </style>
    <clipPath id="clippath">
      <rect class="cls-1" x="10.97" y="11.8" width="270" height="270"/>
    </clipPath>
  </defs>
  <g id="_レイアウト" data-name="レイアウト">
    <path class="cls-3" d="m310.34,151.67c0,1.34,1.79,2.69,1.76,4.02s-.18,2.68-.25,4.01.6,2.74.5,4.07.02,2.72-.12,4.05-1.46,2.54-1.64,3.86.76,2.84.55,4.15-2.8,2.23-3.05,3.55,1.91,3.12,1.63,4.42-2.01,2.3-2.32,3.6-1.19,2.45-1.54,3.74-.92,2.5-1.31,3.78,1.38,3.25.96,4.52-.88,2.57-1.33,3.83-2.43,1.96-2.92,3.21-.17,2.83-.69,4.06-2.58,1.78-3.14,3-1.02,2.45-1.61,3.65-1.32,2.3-1.94,3.49.03,3.04-.62,4.21-2.58,1.59-3.26,2.74.44,3.4-.27,4.53-2.99,1.26-3.73,2.37-.94,2.58-1.71,3.68-1.53,2.19-2.33,3.27-1.56,2.17-2.39,3.22-1.08,2.58-1.93,3.61-1.72,2.07-2.6,3.08-2.41,1.44-3.32,2.42-1.8,1.98-2.73,2.93c-.93.96-2.17,1.6-3.13,2.54-.96.93-.91,2.94-1.89,3.84-.98.91-3.52.07-4.53.95s-.83,3.13-1.86,3.99-1.59,2.33-2.64,3.16c-1.05.83-2.82.75-3.89,1.54-1.07.8-2.64.9-3.73,1.67s-1.27,2.89-2.38,3.63-2.85.54-3.98,1.25-2.75.59-3.9,1.27-1.83,2.16-3,2.81-2.66.67-3.85,1.28c-1.19.62-1.37,3.25-2.57,3.83s-2.59.86-3.81,1.41-2.69.57-3.92,1.09-2.89-.02-4.14.46c-1.24.49-2.7.34-3.96.8s-1.94,2.54-3.21,2.96c-1.27.42-2.77.12-4.05.5s-2.3,1.71-3.59,2.06c-1.29.35-2.7.27-4.01.59s-2.77-.16-4.08.13-2.77-.34-4.09-.09-2.6.43-3.92.64-2.35,2.34-3.68,2.51c-1.32.18-2.71-.06-4.04.08s-2.78-1.22-4.12-1.11c-1.33.1-2.54,1.84-3.88,1.91s-2.7-.86-4.04-.83-2.65-.26-4-.26-2.7,1.6-4.03,1.57c-1.34-.04-2.72.39-4.05.32-1.34-.07-2.5-2.73-3.83-2.84-1.34-.11-2.72.62-4.05.48s-2.55-1.03-3.87-1.21-2.69.09-4.01-.12-2.83.69-4.14.45c-1.32-.25-2.51-1.11-3.81-1.39s-2.86.49-4.16.17c-1.3-.32-2.77-.07-4.06-.42-1.29-.35-2.27-1.87-3.55-2.26s-2.85.1-4.12-.32-2.71-.46-3.97-.91-2.41-1.31-3.65-1.79-2.35-1.39-3.58-1.91-2.49-1.04-3.7-1.6-2.58-.85-3.78-1.44c-1.2-.59-2.46-1.12-3.65-1.74s-1.22-3.37-2.39-4.02c-1.17-.65-2.82-.41-3.97-1.09s-3.1-.08-4.23-.79-1.45-2.72-2.56-3.46c-1.11-.74-1.8-2.08-2.89-2.85s-2.44-1.16-3.51-1.95c-1.07-.8-2.23-1.47-3.28-2.3s-2.48-1.18-3.51-2.04-1.56-2.29-2.57-3.17-2.69-1.01-3.67-1.92-2.19-1.61-3.15-2.54-.7-3.09-1.63-4.05-2.19-1.59-3.1-2.57-2.59-1.28-3.47-2.28-1.46-2.28-2.32-3.31-2.26-1.64-3.09-2.69-1.9-1.95-2.7-3.03-1.68-2.13-2.45-3.22c-.77-1.09.06-3.29-.69-4.41s-.78-2.65-1.49-3.78-3.04-1.27-3.72-2.42-1.59-2.2-2.23-3.37-1.41-2.31-2.03-3.49.49-3.24-.1-4.45-1.09-2.41-1.65-3.63-2.62-1.77-3.14-3-1.24-2.41-1.73-3.65,0-2.87-.46-4.13-.64-2.6-1.06-3.87.05-2.8-.33-4.08-3.33-1.83-3.68-3.12-.3-2.72-.61-4.02,1.27-3.03.99-4.34-2.46-2.23-2.7-3.55,1.91-3.04,1.69-4.36-2.52-2.32-2.7-3.65-.09-2.7-.23-4.03-.99-2.62-1.1-3.95-.31-2.69-.38-4.03.31-2.72.28-4.06,2.06-2.7,2.06-4.04-.94-2.67-.91-4.01.02-2.68.09-4.01-.41-2.72-.31-4.05,1.89-2.51,2.03-3.83.4-2.62.58-3.94-.82-2.81-.6-4.12,1.68-2.41,1.93-3.72-.48-2.8-.2-4.11.55-2.61.87-3.91.75-2.56,1.1-3.85.05-2.77.43-4.05.13-2.78.55-4.05.35-2.74.81-4,1.87-2.18,2.36-3.43.42-2.74.94-3.97,2.93-1.64,3.49-2.86.37-2.77.95-3.97,1.86-2.04,2.48-3.23.28-2.88.93-4.05,2.41-1.69,3.09-2.84-.48-3.43.23-4.56,3.21-1.12,3.95-2.23,1.14-2.44,1.91-3.53,2.08-1.77,2.88-2.84,1.7-2.03,2.53-3.08,1.26-2.39,2.11-3.41.46-3.12,1.34-4.13c.88-1.01,2.98-.92,3.89-1.9.91-.98,2.11-1.64,3.05-2.6s1.87-1.87,2.83-2.8.3-3.57,1.28-4.48,2.43-1.33,3.44-2.21c1.01-.88,2.34-1.39,3.37-2.24s1.46-2.47,2.51-3.3c1.05-.83,2.6-1.03,3.67-1.83s1.94-1.9,3.04-2.67,2.71-.78,3.82-1.52,2.74-.65,3.87-1.36.89-3.69,2.04-4.37c1.15-.68,3.37.48,4.54-.17s2.54-.87,3.73-1.49,1.87-2.18,3.08-2.77,2.53-.88,3.75-1.43,2.17-1.71,3.4-2.23,2.33-1.4,3.58-1.89c1.24-.49,2.5-.99,3.76-1.45s3.21,1.12,4.48.7,2.47-.93,3.75-1.32c1.28-.38,1.98-2.77,3.27-3.12s2.84.27,4.14-.05c1.3-.32,2.86.62,4.17.33s2.36-1.7,3.68-1.95,2.5-1.21,3.83-1.42,2.53-1.36,3.86-1.53,2.92,1.88,4.26,1.74,2.67.15,4.01.04,2.62-.43,3.96-.5S155.72.04,157.07,0s2.7.08,4.04.08,2.65,1.84,3.99,1.88c1.34.04,2.69-.68,4.03-.61,1.34.07,2.7-.26,4.03-.15s2.75-.52,4.08-.38c1.33.14,2.52,1.57,3.84,1.75s2.8-.57,4.11-.36,2.65.52,3.96.76,2.24,2.38,3.55,2.66,3.06-1.41,4.36-1.1c1.3.32,2.53.96,3.82,1.32s2.73.26,4.01.65,1.87,2.93,3.14,3.35c1.27.42,2.83-.06,4.09.39s3.11-.64,4.36-.15c1.25.49,1.62,3.14,2.85,3.66s2.89.05,4.1.6c1.22.55,1.86,2.3,3.06,2.88s2.89.18,4.07.79c1.19.62,1.97,1.96,3.14,2.61s3.12-.08,4.27.6,1.45,2.76,2.58,3.47,2.95.35,4.07,1.09c1.11.74,2.65.9,3.74,1.67s.91,3.31,1.98,4.11,3.55-.24,4.6.59c1.05.83,1.72,2.17,2.75,3.02s1.73,2.11,2.73,2.99,1.95,1.83,2.94,2.74,1.71,2.08,2.67,3.01,2.38,1.41,3.31,2.37,1.39,2.37,2.29,3.36,2.32,1.51,3.21,2.52.82,2.81,1.68,3.84,1.79,1.97,2.62,3.02c.83,1.05,2.99,1.09,3.79,2.16s1.23,2.44,2,3.53,1.31,2.36,2.05,3.48.32,2.96,1.03,4.1,3.43,1.05,4.11,2.2.63,2.75,1.28,3.92-.15,3.1.47,4.29,1.91,2.01,2.5,3.21,1.54,2.23,2.09,3.44,1.41,2.31,1.93,3.54-.02,2.89.46,4.14,2.44,1.94,2.89,3.2,1.2,2.44,1.62,3.71-.23,2.89.15,4.18.97,2.51,1.32,3.8-.14,2.79.17,4.1,1.66,2.36,1.94,3.67,1.24,2.5,1.49,3.82-.28,2.78-.06,4.11-1.23,2.87-1.05,4.2,2.5,2.39,2.64,3.72-.32,2.73-.22,4.07.22,2.67.29,4.01.89,2.66.93,4-2.63,2.7-2.63,4.05Z"/>
    <g class="cls-2">
      <image width="3000" height="3000" transform="translate(0 11.8) scale(.09)" xlink:href="../../../../ポートフォリオ/designcomp_kamei/sozai/profile_icon_72.png"/>
    </g>
  </g>
</svg>