<?xml version="1.0" encoding="UTF-8"?>
<svg id="_レイヤー_2" data-name="レイヤー 2" xmlns="http://www.w3.org/2000/svg" viewBox="0 0 180.01 180.01">
  <defs>
    <style>
      .cls-1 {
        letter-spacing: 0em;
      }

      .cls-2 {
        fill: #bca98f;
      }

      .cls-3 {
        font-size: 32.65px;
      }

      .cls-3, .cls-4 {
        fill: #fff;
        font-family: Baloo2-Regular, 'Baloo 2';
      }

      .cls-5 {
        letter-spacing: 0em;
      }

      .cls-6 {
        letter-spacing: -.05em;
      }

      .cls-4 {
        font-size: 20.61px;
      }

      .cls-7 {
        stroke-linecap: round;
        stroke-linejoin: round;
      }

      .cls-7, .cls-8 {
        fill: none;
        stroke: #fff;
        stroke-width: 1.3px;
      }

      .cls-8 {
        stroke-miterlimit: 10;
      }
    </style>
  </defs>
  <g id="_レイヤー_1-2" data-name="レイヤー 1">
    <g>
      <path class="cls-2" d="m146.26,172.22H33.75c0-14.34-11.62-25.96-25.96-25.96V33.75c14.34,0,25.96-11.62,25.96-25.96h112.51c0,14.34,11.62,25.96,25.96,25.96v112.51c-14.34,0-25.96,11.62-25.96,25.96Z"/>
      <path class="cls-2" d="m152.05,2v5.79c0,11.13,9.05,20.18,20.18,20.18h5.78v124.09h-5.78c-11.13,0-20.18,9.05-20.18,20.18v5.79H27.96v-5.79c0-11.13-9.05-20.18-20.18-20.18H2V27.96h5.78c11.13,0,20.18-9.05,20.18-20.18V2h124.08m2-2H25.96v7.79c0,10.02-8.15,18.18-18.18,18.18H0v128.09h7.78c10.02,0,18.18,8.15,18.18,18.18v7.79h128.08v-7.79c0-10.02,8.15-18.18,18.18-18.18h7.78V25.96h-7.78c-10.02,0-18.18-8.15-18.18-18.18V0h0Z"/>
    </g>
    <g>
      <path class="cls-8" d="m92.38,83.15h-1.97c-.16,0-.33-.05-.47-.13-13.56-8.16-28.19-10.02-43.41-8.42-.47.05-.83.45-.83.92v1.58c0,.56.5.99,1.06.91,14.93-2.19,28.94.11,41.87,7.71.2.12.32.33.32.56v.91c0,.51.41.92.92.92h3.05c.51,0,.92-.41.92-.92v-.91c0-.23.12-.44.32-.56,12.93-7.6,26.94-9.9,41.87-7.71.56.08,1.06-.34,1.06-.91v-1.58c0-.47-.36-.87-.83-.92-15.22-1.61-29.85.26-43.41,8.42-.14.08-.3.13-.47.13Z"/>
      <path class="cls-7" d="m51.42,67.95s31.22-6.06,39.94,11.83c3.17-8.66,17.67-14.27,27.75-15.37,6.33-.56,10.38-.1,11.25,2.41.9,2.58-3.6,4.68-9.97,2.96-10.86-2.93-43.07-11.78-49.11-12.88-7.05-1.28-11.45-.01-11.65,1.97-.22,2.2,4.27,4.04,10.46,4.14,10.85.17,30.76-11.55,39.64-12.43,4.56-.45,7.05,0,7.6,1.83.53,1.79-2.09,4.33-7.35,4.12-5.74-.24-29.92-7.03-32.41-7.67-5.47-1.4-9.69-.81-9.99,1.23-.32,2.18,3.13,3.38,8.77,3.04,10.41-.61,19.3-7.77,26.56-10.48,3.91-1.46,5.79-.71,6.29.78.57,1.69-1.1,2.94-4.08,3.43-8.53,1.4-19.2-5.71-22.32-6.6-3.99-1.13-7.04-.2-7.45,1.24-.53,1.89,2.78,3.33,6.76,2.83,6.98-.88,18.54-6.56,18.29-9.82-.24-3.18-6.33-3.34-9.17-2.85-5,.87-8.98,2.21-8.98,2.21"/>
    </g>
    <text class="cls-3" transform="translate(23.87 120.73)"><tspan class="cls-6" x="0" y="0">T</tspan><tspan x="15.28" y="0">sumugu. </tspan></text>
    <text class="cls-4" transform="translate(59.96 147.14)"><tspan class="cls-1" x="0" y="0">D</tspan><tspan class="cls-5" x="13.48" y="0">e</tspan><tspan x="24.29" y="0">sign</tspan></text>
  </g>
</svg>