<?xml version="1.0" encoding="UTF-8"?>
<svg id="_レイヤー_2" data-name="レイヤー 2" xmlns="http://www.w3.org/2000/svg" viewBox="0 0 208.06 208.06">
  <defs>
    <style>
      .cls-1, .cls-2 {
        fill: none;
      }

      .cls-3 {
        letter-spacing: -.16em;
      }

      .cls-4 {
        letter-spacing: .06em;
      }

      .cls-5 {
        fill: #007f87;
      }

      .cls-6, .cls-7, .cls-8 {
        fill: #fff;
      }

      .cls-9 {
        fill: #bba88e;
      }

      .cls-10 {
        fill: #bca98f;
      }

      .cls-7 {
        font-family: Baloo2-Regular, 'Baloo 2';
        font-size: 28.21px;
      }

      .cls-11 {
        letter-spacing: -.05em;
      }

      .cls-12 {
        letter-spacing: -.1em;
      }

      .cls-8 {
        font-family: DNPShueiMGoStd-B-83pv-RKSJ-H, 'DNP ShueiMGoStd';
        font-size: 10.51px;
      }

      .cls-13 {
        letter-spacing: -.02em;
      }

      .cls-14 {
        letter-spacing: .07em;
      }

      .cls-15 {
        letter-spacing: .06em;
      }

      .cls-16 {
        letter-spacing: -.48em;
      }

      .cls-17 {
        letter-spacing: .03em;
      }

      .cls-2 {
        stroke: #fff;
        stroke-miterlimit: 10;
        stroke-width: 2.45px;
      }

      .cls-18 {
        letter-spacing: 0em;
      }
    </style>
  </defs>
  <g id="_レイヤー_1-2" data-name="レイヤー 1">
    <g>
      <path class="cls-10" d="m169.06,199.07H39.01c0-16.57-13.44-30.01-30.01-30.01V39.01c16.57,0,30.01-13.44,30.01-30.01h130.05c0,16.57,13.44,30.01,30.01,30.01v130.05c-16.57,0-30.01,13.44-30.01,30.01Z"/>
      <path class="cls-10" d="m173.82,4.23v4.77c0,13.92,11.32,25.24,25.24,25.24h4.77v139.58h-4.77c-13.92,0-25.24,11.32-25.24,25.24v4.77H34.24v-4.77c0-13.92-11.32-25.24-25.24-25.24h-4.77V34.24h4.77c13.92,0,25.24-11.32,25.24-25.24v-4.77h139.58m4.23-4.23H30.01v9c0,11.58-9.43,21.01-21.01,21.01H0v148.05h9c11.58,0,21.01,9.43,21.01,21.01v9h148.05v-9c0-11.58,9.43-21.01,21.01-21.01h9V30.01h-9c-11.58,0-21.01-9.42-21.01-21.01V0h0Z"/>
    </g>
    <text class="cls-8" transform="translate(65.04 170.43)"><tspan class="cls-4" x="0" y="0">つ</tspan><tspan class="cls-12" x="11.16" y="0">む</tspan><tspan class="cls-11" x="20.66" y="0">ぐ</tspan><tspan class="cls-16" x="30.66" y="0">。</tspan><tspan class="cls-14" x="36.17" y="0">デ</tspan><tspan class="cls-13" x="47.4" y="0">ザ</tspan><tspan class="cls-3" x="57.74" y="0">イ</tspan><tspan class="cls-17" x="66.61" y="0">ン</tspan></text>
    <g>
      <path class="cls-1" d="m70.86,65.02l-1.27.84c-.67-.31-1.45-.72-2.01-1.04-2.86-1.71-5.46-4.07-6.83-7.19l-.29-.67c-.28-.92-.78-1.92-.47-2.9.11-.35.46-1.19.95-.78,1.02.85.93,1.9,1.35,2.99.83,2.18,2.32,4.09,4.06,5.63,1.37,1.22,2.9,2.24,4.52,3.12Z"/>
      <path class="cls-1" d="m133.07,97.97c-3.16,2.01-6.73,3.41-10.53,4.08-3.81.67-7.63.58-11.29-.23l.63-1.74c.22-.6-.09-1.26-.69-1.48l-.6-.22,3.06-8.42.7-.93c.37-.49.43-1.11.23-1.64l3.03-8.32c.28,0,.57-.02.86-.08.29-.05.57-.13.83-.22l13.2,15.74-.49.41c-.49.41-.55,1.13-.14,1.62l1.19,1.42Z"/>
      <path class="cls-1" d="m75.36,67.74c-1-.21-2-.48-2.98-.81l1-.66c.71.32,1.42.63,2.14.93.31.12.17.61-.16.54Z"/>
      <path class="cls-1" d="m87.65,56.91c-2.24,4.01-3.68,8.47-4.16,13.15-1.51-.82-2.55-1.38-2.92-1.58-.09-.05-.15-.14-.17-.24-.09-.62-.46-2.93-1.48-5.6l8.73-5.73Z"/>
      <path class="cls-1" d="m109.62,89.45l-2.76,7.58-.6-.22c-.6-.22-1.26.09-1.48.69l-.63,1.72c-1.11-.58-2.19-1.23-3.24-1.96-5.28-3.7-9.09-8.94-10.99-15l1.8-.32c.63-.11,1.05-.71.94-1.33l-.11-.63,1.14-.2c6.14,3.73,12.36,7.51,15.93,9.68Z"/>
      <path class="cls-1" d="m65.23,75.5c.22-.61.35-1.26.35-1.94s-.13-1.33-.35-1.94l1.84-1.21c3.62.14,6.68-.75,8.03-1.22.49-.17,1.03-.11,1.47.16,1.15.7,3.61,2.2,6.74,4.1,0,1.35.07,2.71.23,4.08l-1.5.26c-.63.11-1.05.71-.94,1.33l.29,1.64c.11.63.71,1.05,1.34.94l1.5-.26c.73,3.09,1.86,6.02,3.37,8.73l-22.36-14.68Z"/>
      <path class="cls-1" d="m124.44,48.74l-7.03,19.3c-.28,0-.57.02-.86.08-.29.05-.57.13-.83.22l-13.21-15.73.49-.41c.49-.41.55-1.13.14-1.62l-1.18-1.4c3.12-1.99,6.66-3.41,10.52-4.09,1.7-.3,3.4-.45,5.09-.45,2.09,0,4.17.23,6.2.68l-.63,1.74c-.22.6.09,1.26.69,1.48l.6.22Z"/>
      <path class="cls-1" d="m145.1,64.86l-1.8.32c-.63.11-1.05.71-.94,1.33l.11.63-20.23,3.56c-.3-.5-.68-.94-1.11-1.32l7.02-19.3.6.22c.6.22,1.26-.09,1.48-.69l.63-1.72c1.11.58,2.19,1.23,3.23,1.96,5.29,3.7,9.1,8.94,10.99,15Z"/>
      <path class="cls-1" d="m141.21,90.15c-.73,1.04-1.53,2.02-2.37,2.95l-1.18-1.4c-.41-.49-1.13-.55-1.62-.14l-.49.41-13.2-15.73c.28-.5.47-1.05.59-1.62l20.23-3.56.11.63c.11.63.71,1.05,1.33.94l1.8-.32c.29,6.34-1.5,12.56-5.2,17.85Z"/>
      <path class="cls-1" d="m113.89,77.73l-2.67,7.35c-3.03-1.64-7.3-3.95-11.69-6.33l13.26-2.34c.3.5.68.94,1.11,1.32Z"/>
      <path class="cls-1" d="m112.68,70.88c-.28.5-.48,1.05-.59,1.62l-18.18,3.2c-1.87-1.01-3.67-1.99-5.32-2.88.17-7.1,2.98-13.74,7.6-18.8l1.16,1.39c.41.48,1.14.55,1.63.14l.49-.41,13.2,15.73Z"/>
      <path class="cls-9" d="m88.56,76.66h-.02s0-.01,0-.01c0,0,.01,0,.02.01Z"/>
      <path class="cls-6" d="m153.93,67.98l-.29-1.63c-.11-.63-.71-1.05-1.33-.94l-1.5.26c-1.93-8.18-6.72-15.28-13.67-20.14-1.93-1.35-3.97-2.49-6.08-3.4l.52-1.42c.22-.6-.09-1.26-.69-1.48l-1.56-.57c-.6-.22-1.26.09-1.48.69l-.52,1.42c-5.05-1.52-10.42-1.85-15.76-.92-2.72.48-5.3,1.27-7.72,2.33-2.42,1.06-4.69,2.39-6.76,3.93l-.98-1.17c-.41-.49-1.14-.55-1.63-.14l-1.27,1.07c-.49.41-.55,1.13-.14,1.62l.99,1.18c-.97.92-1.88,1.88-2.73,2.9l-13.41,8.8c.19.37.36.74.52,1.11.17.39.33.77.47,1.15l8.73-5.73c-2.24,4.01-3.68,8.47-4.16,13.15,1.37.74,3.13,1.69,5.11,2.77.17-7.1,2.98-13.74,7.6-18.8l1.16,1.39c.41.48,1.14.55,1.63.14l.49-.41,13.2,15.73c-.28.5-.48,1.05-.59,1.62l-18.18,3.2c1.83.99,3.73,2.02,5.61,3.04l13.26-2.34c.3.5.68.94,1.11,1.32l-2.67,7.35c1.01.55,1.89,1.02,2.58,1.4.39.21.65.54.79.92l3.03-8.32c.28,0,.57-.02.86-.08.29-.05.57-.13.83-.22l13.2,15.74-.49.41c-.49.41-.55,1.13-.14,1.62l1.19,1.42c-3.16,2.01-6.73,3.41-10.53,4.08-3.81.67-7.63.58-11.29-.23l.63-1.74c.22-.6-.09-1.26-.69-1.48l-.6-.22,3.06-8.42-.05.07c-.54.71-1.52.9-2.28.44-.46-.28-1.03-.63-1.7-1.03l-2.76,7.58-.6-.22c-.6-.22-1.26.09-1.48.69l-.63,1.72c-1.11-.58-2.19-1.23-3.24-1.96-5.28-3.7-9.09-8.94-10.99-15l1.8-.32c.63-.11,1.05-.71.94-1.33l-.11-.63,1.14-.2c-.44-.27-.88-.53-1.32-.8-1.22-.74-2.43-1.48-3.6-2.19-.07-.04-.14-.09-.21-.13h-.02s0-.01,0-.01c-1.86-1.13-3.63-2.21-5.23-3.18,0,1.35.07,2.71.23,4.08l-1.5.26c-.63.11-1.05.71-.94,1.33l.29,1.64c.11.63.71,1.05,1.34.94l1.5-.26c.73,3.09,1.86,6.02,3.37,8.73l-22.36-14.68c.22-.61.35-1.26.35-1.94s-.13-1.33-.35-1.94l1.84-1.21c-.63-.02-1.29-.08-1.96-.18-.24-.03-.49-.08-.74-.12-.32-.06-.65-.13-.98-.21-.95-.24-1.91-.56-2.86-1-.51-.23-.99-.5-1.44-.78-2.59.46-4.57,2.72-4.57,5.44,0,3.05,2.48,5.53,5.53,5.53,1.49,0,2.84-.59,3.84-1.55l27.35,17.96c1.92,2.29,4.14,4.34,6.65,6.09,1.93,1.35,3.97,2.49,6.08,3.4l-.52,1.42c-.22.6.09,1.26.69,1.48l1.56.57c.6.22,1.26-.09,1.48-.69l.52-1.42c3.15.95,6.43,1.44,9.75,1.44,2,0,4.01-.17,6.02-.53,5.34-.94,10.27-3.1,14.5-6.25l.97,1.16c.41.49,1.13.55,1.62.14l1.27-1.07c.49-.41.55-1.13.14-1.62l-.98-1.16c1.67-1.58,3.2-3.34,4.55-5.27,4.86-6.94,6.94-15.26,5.95-23.6l1.5-.27c.63-.11,1.05-.71.94-1.33Zm-36.51.06c-.28,0-.57.02-.86.08-.29.05-.57.13-.83.22l-13.21-15.73.49-.41c.49-.41.55-1.13.14-1.62l-1.18-1.4c3.12-1.99,6.66-3.41,10.52-4.09,1.7-.3,3.4-.45,5.09-.45,2.09,0,4.17.23,6.2.68l-.63,1.74c-.22.6.09,1.26.69,1.48l.6.22-7.03,19.3Zm3.73,1.35l7.02-19.3.6.22c.6.22,1.26-.09,1.48-.69l.63-1.72c1.11.58,2.19,1.23,3.23,1.96,5.29,3.7,9.1,8.94,10.99,15l-1.8.32c-.63.11-1.05.71-.94,1.33l.11.63-20.23,3.56c-.3-.5-.68-.94-1.11-1.32Zm20.07,20.76c-.73,1.04-1.53,2.02-2.37,2.95l-1.18-1.4c-.41-.49-1.13-.55-1.62-.14l-.49.41-13.2-15.73c.28-.5.47-1.05.59-1.62l20.23-3.56.11.63c.11.63.71,1.05,1.33.94l1.8-.32c.29,6.34-1.5,12.56-5.2,17.85Z"/>
      <g>
        <path class="cls-2" d="m114.59,87.4c-.14-.38-.4-.71-.79-.92-.69-.38-1.57-.85-2.58-1.4-3.03-1.64-7.3-3.95-11.69-6.33-1.87-1.02-3.77-2.05-5.61-3.04-1.87-1.01-3.67-1.99-5.32-2.88-1.98-1.07-3.74-2.02-5.11-2.77-1.51-.82-2.55-1.38-2.92-1.58-.09-.05-.15-.14-.17-.24-.09-.62-.46-2.93-1.48-5.6-.14-.37-.3-.76-.47-1.15-.16-.37-.34-.74-.52-1.11-.92-1.82-2.16-3.64-3.82-5.06-3.98-3.41-6.69-4.85-7.8-5.36-.24-.11-.28-.42-.07-.58.77-.59,2.24-1.9,2.79-3.64.04-.15.17-.25.33-.25h3.51c.26,0,.32-.37.07-.45-1.22-.41-2.94-1-3.52-1.19-.12-.04-.2-.15-.22-.28-.36-2.83-2.65-5.17-6.1-5.17-3.77,0-7.69,1.93-9.69,9.66-1.86,7.19-.56,16.1,5.69,20.06.45.29.93.55,1.44.78.96.44,1.92.76,2.86,1,.33.08.65.15.98.21.25.04.49.09.74.12.67.1,1.32.15,1.96.18,3.62.14,6.68-.75,8.03-1.22.49-.17,1.03-.11,1.47.16,1.15.7,3.61,2.2,6.74,4.1,1.6.98,3.37,2.05,5.23,3.18,0,0,.01,0,.02.01l.2-.04c0,.06.01.11.02.17,1.18.71,2.38,1.45,3.6,2.19.44.27.88.53,1.32.8,6.14,3.73,12.36,7.51,15.93,9.68.66.4,1.24.75,1.7,1.03.76.46,1.74.27,2.28-.44l.05-.07.7-.93c.37-.49.43-1.11.23-1.64Zm-49.62-44.78c.52,0,.94.42.94.94s-.42.94-.94.94-.94-.42-.94-.94.42-.94.94-.94Zm10.39,25.12c-1-.21-2-.48-2.98-.81-.48-.16-.96-.33-1.44-.52-.29-.11-.58-.22-.87-.35-.15-.07-.32-.14-.49-.22-.67-.31-1.45-.72-2.01-1.04-2.86-1.71-5.46-4.07-6.83-7.19l-.29-.67c-.28-.92-.78-1.92-.47-2.9.11-.35.46-1.19.95-.78,1.02.85.93,1.9,1.35,2.99.83,2.18,2.32,4.09,4.06,5.63,1.37,1.22,2.9,2.24,4.52,3.12.41.22.82.44,1.24.65.43.21.86.41,1.29.61.71.32,1.42.63,2.14.93.31.12.17.61-.16.54Z"/>
        <path class="cls-5" d="m114.59,87.4c-.14-.38-.4-.71-.79-.92-.69-.38-1.57-.85-2.58-1.4-3.03-1.64-7.3-3.95-11.69-6.33-1.87-1.02-3.77-2.05-5.61-3.04-1.87-1.01-3.67-1.99-5.32-2.88-1.98-1.07-3.74-2.02-5.11-2.77-1.51-.82-2.55-1.38-2.92-1.58-.09-.05-.15-.14-.17-.24-.09-.62-.46-2.93-1.48-5.6-.14-.37-.3-.76-.47-1.15-.16-.37-.34-.74-.52-1.11-.92-1.82-2.16-3.64-3.82-5.06-3.98-3.41-6.69-4.85-7.8-5.36-.24-.11-.28-.42-.07-.58.77-.59,2.24-1.9,2.79-3.64.04-.15.17-.25.33-.25h3.51c.26,0,.32-.37.07-.45-1.22-.41-2.94-1-3.52-1.19-.12-.04-.2-.15-.22-.28-.36-2.83-2.65-5.17-6.1-5.17-3.77,0-7.69,1.93-9.69,9.66-1.86,7.19-.56,16.1,5.69,20.06.45.29.93.55,1.44.78.96.44,1.92.76,2.86,1,.33.08.65.15.98.21.25.04.49.09.74.12.67.1,1.32.15,1.96.18,3.62.14,6.68-.75,8.03-1.22.49-.17,1.03-.11,1.47.16,1.15.7,3.61,2.2,6.74,4.1,1.6.98,3.37,2.05,5.23,3.18,0,0,.01,0,.02.01l.2-.04c0,.06.01.11.02.17,1.18.71,2.38,1.45,3.6,2.19.44.27.88.53,1.32.8,6.14,3.73,12.36,7.51,15.93,9.68.66.4,1.24.75,1.7,1.03.76.46,1.74.27,2.28-.44l.05-.07.7-.93c.37-.49.43-1.11.23-1.64Zm-49.62-44.78c.52,0,.94.42.94.94s-.42.94-.94.94-.94-.42-.94-.94.42-.94.94-.94Zm10.39,25.12c-1-.21-2-.48-2.98-.81-.48-.16-.96-.33-1.44-.52-.29-.11-.58-.22-.87-.35-.15-.07-.32-.14-.49-.22-.67-.31-1.45-.72-2.01-1.04-2.86-1.71-5.46-4.07-6.83-7.19l-.29-.67c-.28-.92-.78-1.92-.47-2.9.11-.35.46-1.19.95-.78,1.02.85.93,1.9,1.35,2.99.83,2.18,2.32,4.09,4.06,5.63,1.37,1.22,2.9,2.24,4.52,3.12.41.22.82.44,1.24.65.43.21.86.41,1.29.61.71.32,1.42.63,2.14.93.31.12.17.61-.16.54Z"/>
      </g>
      <path class="cls-5" d="m88.77,76.79c-.07-.04-.14-.09-.21-.13l.2-.04c0,.06.01.11.02.17Z"/>
    </g>
    <text class="cls-7" transform="translate(41.66 149.58)"><tspan class="cls-18" x="0" y="0">T</tspan><tspan class="cls-15" x="14.9" y="0">sumugu.</tspan></text>
  </g>
</svg>