<?xml version="1.0" encoding="UTF-8"?>
<svg id="_レイヤー_2" data-name="レイヤー 2" xmlns="http://www.w3.org/2000/svg" viewBox="0 0 180.01 180.01">
  <defs>
    <style>
      .cls-1 {
        letter-spacing: 0em;
      }

      .cls-2 {
        fill: #fff;
      }

      .cls-3 {
        fill: #bca98f;
      }

      .cls-4 {
        stroke-linecap: round;
        stroke-linejoin: round;
      }

      .cls-4, .cls-5 {
        fill: none;
        stroke: #007f87;
        stroke-width: 1.13px;
      }

      .cls-6 {
        font-size: 32.65px;
      }

      .cls-6, .cls-7 {
        fill: #705039;
        font-family: Baloo2-Regular, 'Baloo 2';
      }

      .cls-8 {
        letter-spacing: 0em;
      }

      .cls-9 {
        letter-spacing: -.05em;
      }

      .cls-7 {
        font-size: 20.61px;
      }

      .cls-5 {
        stroke-miterlimit: 10;
      }
    </style>
  </defs>
  <g id="_レイヤー_1-2" data-name="レイヤー 1">
    <g>
      <path class="cls-2" d="m34.73,171.22c-.52-14.07-11.87-25.43-25.94-25.94V34.73c14.07-.52,25.43-11.87,25.94-25.94h110.55c.52,14.07,11.87,25.43,25.94,25.94v110.55c-14.07.52-25.43,11.87-25.94,25.94H34.73Z"/>
      <path class="cls-3" d="m144.33,9.79c.98,13.83,12.06,24.91,25.89,25.89v108.66c-13.83.98-24.91,12.06-25.89,25.89H35.68c-.98-13.83-12.06-24.91-25.89-25.89V35.68c13.83-.98,24.91-12.06,25.89-25.89h108.66m1.93-2H33.75c0,14.34-11.62,25.96-25.96,25.96v112.51c14.34,0,25.96,11.62,25.96,25.96h112.52c0-14.34,11.62-25.96,25.96-25.96V33.75c-14.34,0-25.96-11.62-25.96-25.96h0Z"/>
      <path class="cls-3" d="m152.05,2v5.79c0,11.13,9.05,20.18,20.18,20.18h5.78v124.09h-5.78c-11.13,0-20.18,9.05-20.18,20.18v5.79H27.96v-5.79c0-11.13-9.05-20.18-20.18-20.18H2V27.96h5.78c11.13,0,20.18-9.05,20.18-20.18V2h124.08m2-2H25.96v7.79c0,10.02-8.15,18.18-18.18,18.18H0v128.09h7.78c10.02,0,18.18,8.15,18.18,18.18v7.79h128.08v-7.79c0-10.02,8.15-18.18,18.18-18.18h7.78V25.96h-7.78c-10.02,0-18.18-8.15-18.18-18.18V0h0Z"/>
    </g>
    <g>
      <path class="cls-5" d="m92.25,80.08h-1.71c-.14,0-.28-.04-.41-.11-11.78-7.08-24.49-8.71-37.71-7.31-.41.04-.72.39-.72.8v1.37c0,.49.44.86.92.79,12.97-1.9,25.14.1,36.37,6.7.17.1.28.29.28.48v.79c0,.44.36.8.8.8h2.65c.44,0,.8-.36.8-.8v-.79c0-.2.11-.38.28-.48,11.23-6.6,23.4-8.6,36.37-6.7.48.07.92-.3.92-.79v-1.37c0-.41-.31-.76-.72-.8-13.22-1.39-25.93.23-37.71,7.31-.12.07-.26.11-.41.11Z"/>
      <path class="cls-4" d="m56.67,66.88s27.12-5.27,34.69,10.28c2.75-7.53,15.35-12.4,24.11-13.35,5.5-.49,9.02-.08,9.77,2.09.78,2.24-3.13,4.06-8.66,2.57-9.44-2.54-37.41-10.23-42.66-11.19-6.12-1.12-9.95,0-10.12,1.71-.19,1.91,3.71,3.51,9.08,3.59,9.43.15,26.72-10.03,34.44-10.79,3.96-.39,6.12,0,6.6,1.59.46,1.55-1.81,3.77-6.39,3.58-4.98-.21-25.99-6.11-28.15-6.66-4.75-1.21-8.42-.71-8.68,1.07-.28,1.9,2.72,2.93,7.62,2.64,9.05-.53,16.76-6.75,23.07-9.11,3.39-1.27,5.03-.62,5.47.67.49,1.47-.96,2.56-3.54,2.98-7.41,1.21-16.68-4.96-19.38-5.73-3.47-.99-6.12-.17-6.47,1.08-.46,1.64,2.41,2.89,5.87,2.45,6.07-.76,16.1-5.69,15.89-8.53-.2-2.76-5.5-2.91-7.97-2.47-4.34.76-7.8,1.92-7.8,1.92"/>
    </g>
    <text class="cls-6" transform="translate(23.87 120.73)"><tspan class="cls-9" x="0" y="0">T</tspan><tspan x="15.28" y="0">sumugu. </tspan></text>
    <text class="cls-7" transform="translate(59.96 147.14)"><tspan class="cls-1" x="0" y="0">D</tspan><tspan class="cls-8" x="13.48" y="0">e</tspan><tspan x="24.29" y="0">sign</tspan></text>
  </g>
</svg>