<?xml version="1.0" encoding="UTF-8"?>
<svg id="_レイヤー_2" data-name="レイヤー 2" xmlns="http://www.w3.org/2000/svg" viewBox="0 0 207.56 207.56">
  <defs>
    <style>
      .cls-1, .cls-2 {
        fill: none;
      }

      .cls-3 {
        letter-spacing: .02em;
      }

      .cls-4 {
        letter-spacing: -.04em;
      }

      .cls-5 {
        letter-spacing: -.15em;
      }

      .cls-6 {
        fill: #007f87;
      }

      .cls-7, .cls-8 {
        fill: #fff;
      }

      .cls-9 {
        fill: #bba88e;
      }

      .cls-10 {
        fill: #bca98f;
      }

      .cls-11 {
        letter-spacing: .07em;
      }

      .cls-12 {
        letter-spacing: .07em;
      }

      .cls-13 {
        letter-spacing: -.01em;
      }

      .cls-2 {
        stroke: #fff;
        stroke-miterlimit: 10;
        stroke-width: 2.14px;
      }

      .cls-14 {
        letter-spacing: -.47em;
      }

      .cls-8 {
        font-family: DNPShueiMGoStd-L-83pv-RKSJ-H, 'DNP ShueiMGoStd';
        font-size: 19.75px;
      }

      .cls-15 {
        letter-spacing: -.11em;
      }
    </style>
  </defs>
  <g id="_レイヤー_1-2" data-name="レイヤー 1">
    <g>
      <path class="cls-10" d="m168.65,198.59H38.91c0-16.53-13.4-29.94-29.94-29.94V38.91c16.53,0,29.94-13.4,29.94-29.94h129.74c0,16.53,13.4,29.94,29.94,29.94v129.74c-16.53,0-29.94,13.4-29.94,29.94Z"/>
      <path class="cls-10" d="m173.41,4.22v4.75c0,13.89,11.3,25.18,25.18,25.18h4.75v139.25h-4.75c-13.89,0-25.18,11.3-25.18,25.18v4.75H34.16v-4.75c0-13.89-11.3-25.18-25.18-25.18h-4.75V34.16h4.75c13.89,0,25.18-11.3,25.18-25.18v-4.75h139.25m4.22-4.22H29.94v8.98c0,11.56-9.4,20.96-20.96,20.96H0v147.69h8.98c11.56,0,20.96,9.4,20.96,20.96v8.98h147.69v-8.98c0-11.56,9.4-20.96,20.96-20.96h8.98V29.94h-8.98c-11.56,0-20.96-9.4-20.96-20.96V0h0Z"/>
    </g>
    <g>
      <text class="cls-8" transform="translate(32.94 151.52)"><tspan class="cls-12" x="0" y="0">つ</tspan><tspan class="cls-15" x="21.1" y="0">む</tspan><tspan class="cls-4" x="38.78" y="0">ぐ</tspan><tspan class="cls-14" x="57.72" y="0">。</tspan><tspan class="cls-11" x="68.09" y="0">デ</tspan><tspan class="cls-13" x="89.21" y="0">ザ</tspan><tspan class="cls-5" x="108.68" y="0">イ</tspan><tspan class="cls-3" x="125.39" y="0">ン</tspan></text>
      <g>
        <g>
          <path class="cls-1" d="m69.79,82.01l-1.1.72c-.57-.27-1.25-.62-1.74-.89-2.46-1.47-4.71-3.51-5.89-6.2l-.25-.58c-.24-.8-.67-1.66-.41-2.5.09-.3.39-1.02.82-.68.88.74.8,1.63,1.16,2.58.72,1.88,2,3.52,3.5,4.85,1.18,1.06,2.5,1.93,3.89,2.69Z"/>
          <path class="cls-1" d="m123.41,110.42c-2.73,1.73-5.8,2.94-9.07,3.52-3.28.58-6.57.5-9.73-.2l.55-1.5c.19-.52-.08-1.08-.6-1.27l-.52-.19,2.64-7.26.61-.8c.32-.42.37-.96.2-1.41l2.61-7.17c.25,0,.49-.02.74-.07.25-.04.49-.11.72-.19l11.38,13.56-.42.35c-.42.35-.48.98-.12,1.4l1.02,1.22Z"/>
          <path class="cls-1" d="m73.67,84.36c-.87-.18-1.72-.42-2.57-.69l.87-.57c.61.28,1.23.55,1.84.8.26.11.14.53-.14.46Z"/>
          <path class="cls-1" d="m84.26,75.03c-1.93,3.45-3.17,7.3-3.59,11.34-1.3-.7-2.2-1.19-2.52-1.36-.08-.05-.13-.12-.15-.21-.07-.53-.4-2.53-1.28-4.83l7.53-4.94Z"/>
          <path class="cls-1" d="m103.2,103.07l-2.38,6.53-.52-.19c-.52-.19-1.09.08-1.27.59l-.54,1.48c-.96-.5-1.89-1.06-2.79-1.69-4.55-3.19-7.84-7.7-9.47-12.93l1.55-.27c.54-.09.9-.61.81-1.15l-.09-.54.98-.18c5.29,3.21,10.65,6.47,13.73,8.34Z"/>
          <path class="cls-1" d="m64.94,91.05c.19-.52.3-1.08.3-1.67s-.11-1.15-.3-1.67l1.58-1.04c3.12.12,5.76-.64,6.92-1.06.42-.15.89-.1,1.27.14.99.61,3.11,1.9,5.8,3.54,0,1.16.06,2.34.2,3.52l-1.3.23c-.54.09-.9.61-.81,1.15l.25,1.41c.09.54.61.9,1.15.81l1.29-.23c.63,2.66,1.61,5.18,2.9,7.53l-19.27-12.65Z"/>
          <path class="cls-1" d="m115.97,67.99l-6.06,16.64c-.25,0-.49.02-.74.07-.25.04-.49.11-.72.19l-11.38-13.56.42-.36c.42-.35.47-.98.12-1.4l-1.01-1.21c2.68-1.71,5.74-2.94,9.06-3.53,1.46-.26,2.93-.39,4.38-.39,1.81,0,3.6.2,5.34.58l-.54,1.5c-.19.52.08,1.09.6,1.27l.52.19Z"/>
          <path class="cls-1" d="m133.77,81.89l-1.55.27c-.54.09-.9.61-.81,1.15l.09.55-17.43,3.07c-.26-.43-.58-.81-.95-1.14l6.05-16.63.52.19c.52.19,1.09-.08,1.27-.59l.54-1.48c.96.5,1.89,1.06,2.79,1.69,4.56,3.19,7.84,7.7,9.47,12.92Z"/>
          <path class="cls-1" d="m130.42,103.68c-.63.9-1.31,1.74-2.04,2.54l-1.01-1.21c-.35-.42-.98-.48-1.4-.12l-.42.35-11.37-13.56c.24-.43.41-.9.5-1.4l17.43-3.07.1.54c.09.54.61.9,1.15.81l1.55-.27c.25,5.46-1.29,10.83-4.48,15.38Z"/>
          <path class="cls-1" d="m106.88,92.98l-2.3,6.33c-2.61-1.41-6.29-3.4-10.08-5.45l11.43-2.02c.26.43.58.81.95,1.14Z"/>
          <path class="cls-1" d="m105.84,87.07c-.24.43-.41.9-.5,1.4l-15.67,2.76c-1.61-.87-3.16-1.71-4.58-2.48.15-6.12,2.57-11.84,6.55-16.2l1,1.2c.35.42.98.47,1.4.12l.42-.35,11.38,13.56Z"/>
          <path class="cls-9" d="m85.05,92.05h-.01s0-.01,0-.01c0,0,.01,0,.02.01Z"/>
          <path class="cls-7" d="m141.38,84.57l-.25-1.41c-.09-.54-.61-.9-1.15-.81l-1.29.23c-1.66-7.05-5.79-13.17-11.78-17.36-1.66-1.16-3.42-2.14-5.24-2.93l.45-1.23c.19-.52-.08-1.08-.59-1.27l-1.35-.49c-.52-.19-1.08.08-1.27.6l-.45,1.23c-4.35-1.31-8.98-1.6-13.59-.79-2.34.41-4.57,1.1-6.66,2.01-2.09.91-4.04,2.06-5.83,3.39l-.85-1.01c-.35-.42-.98-.48-1.4-.12l-1.09.92c-.42.35-.48.98-.12,1.4l.85,1.02c-.83.79-1.62,1.62-2.35,2.5l-11.55,7.58c.16.32.31.64.45.96.15.33.28.67.41.99l7.53-4.94c-1.93,3.45-3.17,7.3-3.59,11.34,1.18.64,2.7,1.46,4.41,2.38.15-6.12,2.57-11.84,6.55-16.2l1,1.2c.35.42.98.47,1.4.12l.42-.35,11.38,13.56c-.24.43-.41.9-.5,1.4l-15.67,2.76c1.58.86,3.22,1.74,4.83,2.62l11.43-2.02c.26.43.58.81.95,1.14l-2.3,6.33c.87.47,1.63.88,2.23,1.21.33.18.56.47.68.79l2.61-7.17c.25,0,.49-.02.74-.07.25-.04.49-.11.72-.19l11.38,13.56-.42.35c-.42.35-.48.98-.12,1.4l1.02,1.22c-2.73,1.73-5.8,2.94-9.07,3.52-3.28.58-6.57.5-9.73-.2l.55-1.5c.19-.52-.08-1.08-.6-1.27l-.52-.19,2.64-7.26-.05.06c-.46.61-1.31.77-1.97.38-.4-.24-.89-.54-1.46-.89l-2.38,6.53-.52-.19c-.52-.19-1.09.08-1.27.59l-.54,1.48c-.96-.5-1.89-1.06-2.79-1.69-4.55-3.19-7.84-7.7-9.47-12.93l1.55-.27c.54-.09.9-.61.81-1.15l-.09-.54.98-.18c-.38-.23-.76-.46-1.14-.69-1.05-.64-2.09-1.27-3.11-1.89-.06-.04-.12-.08-.18-.11h-.01s0-.01,0-.01c-1.61-.97-3.13-1.9-4.51-2.74,0,1.16.06,2.34.2,3.52l-1.3.23c-.54.09-.9.61-.81,1.15l.25,1.41c.09.54.61.9,1.15.81l1.29-.23c.63,2.66,1.61,5.18,2.9,7.53l-19.27-12.65c.19-.52.3-1.08.3-1.67s-.11-1.15-.3-1.67l1.58-1.04c-.55-.02-1.11-.07-1.69-.15-.21-.03-.42-.07-.63-.11-.28-.05-.56-.11-.84-.18-.82-.2-1.64-.48-2.47-.86-.44-.2-.85-.43-1.24-.68-2.24.39-3.94,2.34-3.94,4.69,0,2.63,2.13,4.76,4.77,4.76,1.28,0,2.45-.51,3.31-1.34l23.57,15.47c1.65,1.97,3.56,3.74,5.73,5.25,1.66,1.17,3.42,2.14,5.24,2.93l-.45,1.23c-.19.52.08,1.09.59,1.27l1.34.49c.52.19,1.09-.08,1.28-.6l.45-1.22c2.72.82,5.54,1.24,8.4,1.24,1.72,0,3.45-.15,5.18-.46,4.6-.81,8.85-2.67,12.5-5.39l.84,1c.35.42.98.47,1.4.12l1.1-.92c.42-.35.47-.98.12-1.4l-.84-1c1.44-1.36,2.76-2.88,3.92-4.54,4.19-5.98,5.98-13.15,5.13-20.34l1.29-.23c.54-.09.9-.61.81-1.15Zm-31.47.05c-.25,0-.49.02-.74.07-.25.04-.49.11-.72.19l-11.38-13.56.42-.36c.42-.35.47-.98.12-1.4l-1.01-1.21c2.68-1.71,5.74-2.94,9.06-3.53,1.46-.26,2.93-.39,4.38-.39,1.81,0,3.6.2,5.34.58l-.54,1.5c-.19.52.08,1.09.6,1.27l.52.19-6.06,16.64Zm3.21,1.16l6.05-16.63.52.19c.52.19,1.09-.08,1.27-.59l.54-1.48c.96.5,1.89,1.06,2.79,1.69,4.56,3.19,7.84,7.7,9.47,12.92l-1.55.27c-.54.09-.9.61-.81,1.15l.09.55-17.43,3.07c-.26-.43-.58-.81-.95-1.14Zm17.29,17.89c-.63.9-1.31,1.74-2.04,2.54l-1.01-1.21c-.35-.42-.98-.48-1.4-.12l-.42.35-11.37-13.56c.24-.43.41-.9.5-1.4l17.43-3.07.1.54c.09.54.61.9,1.15.81l1.55-.27c.25,5.46-1.29,10.83-4.48,15.38Z"/>
          <g>
            <path class="cls-2" d="m107.48,101.31c-.12-.33-.35-.61-.68-.79-.6-.33-1.35-.74-2.23-1.21-2.61-1.41-6.29-3.4-10.08-5.45-1.62-.88-3.25-1.76-4.83-2.62-1.61-.87-3.16-1.71-4.58-2.48-1.71-.93-3.22-1.74-4.41-2.38-1.3-.7-2.2-1.19-2.52-1.36-.08-.05-.13-.12-.15-.21-.07-.53-.4-2.53-1.28-4.83-.12-.32-.26-.66-.41-.99-.14-.32-.29-.64-.45-.96-.79-1.57-1.86-3.13-3.29-4.36-3.43-2.94-5.77-4.18-6.72-4.62-.2-.09-.24-.36-.06-.5.67-.51,1.93-1.63,2.41-3.13.04-.13.15-.21.28-.21h3.02c.22,0,.28-.32.06-.39-1.06-.36-2.53-.86-3.03-1.02-.11-.04-.18-.13-.19-.24-.31-2.44-2.29-4.46-5.26-4.46-3.25,0-6.63,1.66-8.35,8.32-1.6,6.2-.48,13.87,4.91,17.28.39.25.8.48,1.24.68.82.38,1.65.66,2.47.86.28.07.56.13.84.18.21.04.42.08.63.11.57.08,1.14.13,1.69.15,3.12.12,5.76-.64,6.92-1.06.42-.15.89-.1,1.27.14.99.61,3.11,1.9,5.8,3.54,1.38.84,2.9,1.77,4.51,2.74,0,0,.01,0,.02.01l.17-.03s.01.09.01.14c1.01.61,2.05,1.25,3.11,1.89.38.23.76.46,1.14.69,5.29,3.21,10.65,6.47,13.73,8.34.57.34,1.07.64,1.46.89.66.4,1.5.23,1.97-.38l.05-.06.61-.8c.32-.42.37-.96.2-1.41Zm-42.76-38.59c.45,0,.81.36.81.81s-.36.81-.81.81-.81-.36-.81-.81.36-.81.81-.81Zm8.96,21.65c-.87-.18-1.72-.42-2.57-.69-.41-.14-.83-.29-1.24-.45-.25-.1-.5-.19-.75-.3-.13-.06-.28-.12-.42-.19-.57-.27-1.25-.62-1.74-.89-2.46-1.47-4.71-3.51-5.89-6.2l-.25-.58c-.24-.8-.67-1.66-.41-2.5.09-.3.39-1.02.82-.68.88.74.8,1.63,1.16,2.58.72,1.88,2,3.52,3.5,4.85,1.18,1.06,2.5,1.93,3.89,2.69.35.19.71.38,1.07.56.37.18.74.36,1.11.53.61.28,1.23.55,1.84.8.26.11.14.53-.14.46Z"/>
            <path class="cls-6" d="m107.48,101.31c-.12-.33-.35-.61-.68-.79-.6-.33-1.35-.74-2.23-1.21-2.61-1.41-6.29-3.4-10.08-5.45-1.62-.88-3.25-1.76-4.83-2.62-1.61-.87-3.16-1.71-4.58-2.48-1.71-.93-3.22-1.74-4.41-2.38-1.3-.7-2.2-1.19-2.52-1.36-.08-.05-.13-.12-.15-.21-.07-.53-.4-2.53-1.28-4.83-.12-.32-.26-.66-.41-.99-.14-.32-.29-.64-.45-.96-.79-1.57-1.86-3.13-3.29-4.36-3.43-2.94-5.77-4.18-6.72-4.62-.2-.09-.24-.36-.06-.5.67-.51,1.93-1.63,2.41-3.13.04-.13.15-.21.28-.21h3.02c.22,0,.28-.32.06-.39-1.06-.36-2.53-.86-3.03-1.02-.11-.04-.18-.13-.19-.24-.31-2.44-2.29-4.46-5.26-4.46-3.25,0-6.63,1.66-8.35,8.32-1.6,6.2-.48,13.87,4.91,17.28.39.25.8.48,1.24.68.82.38,1.65.66,2.47.86.28.07.56.13.84.18.21.04.42.08.63.11.57.08,1.14.13,1.69.15,3.12.12,5.76-.64,6.92-1.06.42-.15.89-.1,1.27.14.99.61,3.11,1.9,5.8,3.54,1.38.84,2.9,1.77,4.51,2.74,0,0,.01,0,.02.01l.17-.03s.01.09.01.14c1.01.61,2.05,1.25,3.11,1.89.38.23.76.46,1.14.69,5.29,3.21,10.65,6.47,13.73,8.34.57.34,1.07.64,1.46.89.66.4,1.5.23,1.97-.38l.05-.06.61-.8c.32-.42.37-.96.2-1.41Zm-42.76-38.59c.45,0,.81.36.81.81s-.36.81-.81.81-.81-.36-.81-.81.36-.81.81-.81Zm8.96,21.65c-.87-.18-1.72-.42-2.57-.69-.41-.14-.83-.29-1.24-.45-.25-.1-.5-.19-.75-.3-.13-.06-.28-.12-.42-.19-.57-.27-1.25-.62-1.74-.89-2.46-1.47-4.71-3.51-5.89-6.2l-.25-.58c-.24-.8-.67-1.66-.41-2.5.09-.3.39-1.02.82-.68.88.74.8,1.63,1.16,2.58.72,1.88,2,3.52,3.5,4.85,1.18,1.06,2.5,1.93,3.89,2.69.35.19.71.38,1.07.56.37.18.74.36,1.11.53.61.28,1.23.55,1.84.8.26.11.14.53-.14.46Z"/>
          </g>
          <path class="cls-6" d="m85.23,92.16c-.06-.04-.12-.08-.18-.11l.17-.03s.01.09.01.14Z"/>
        </g>
        <g>
          <path class="cls-7" d="m102.47,49.03c.05.07.09.16.11.26.04.16.04.3-.01.41-.05.11-.15.18-.28.21l-1.26.34,1.24,4.57s-.12.06-.22.11c-.1.05-.2.08-.31.11-.23.06-.41.06-.53,0-.12-.06-.21-.19-.26-.39l-1.11-4.08-1.53.42s-.09-.11-.14-.18c-.05-.07-.09-.16-.11-.25-.05-.17-.04-.31.01-.41.05-.1.15-.17.28-.21l3.98-1.08s.09.1.14.17Z"/>
          <path class="cls-7" d="m107.93,52.54c.06.44-.06.8-.35,1.09-.29.29-.75.48-1.37.57-.26.04-.49.05-.71.04-.21,0-.4-.04-.57-.09-.16-.05-.29-.12-.39-.21s-.16-.2-.17-.32c-.02-.12,0-.23.04-.32.04-.09.1-.18.18-.24.19.09.41.16.65.22.24.06.51.06.81.02.26-.04.44-.1.56-.21.12-.1.17-.23.15-.38-.04-.26-.25-.4-.63-.43l-.54-.05c-.48-.04-.84-.16-1.09-.34-.25-.18-.4-.45-.45-.81-.06-.41.06-.76.35-1.06.29-.3.73-.49,1.32-.57.22-.03.44-.04.63-.03s.37.04.52.08.27.11.36.19c.09.08.14.18.16.3.02.11,0,.21-.03.31-.04.09-.09.17-.15.23-.06-.03-.14-.06-.24-.08-.1-.02-.2-.05-.31-.06s-.23-.03-.36-.03c-.12,0-.25,0-.37.02-.24.03-.43.1-.56.2-.13.1-.18.22-.16.36.01.11.07.19.15.25.09.06.23.1.43.11l.47.05c.54.05.93.17,1.2.37.26.2.42.48.47.85Z"/>
          <path class="cls-7" d="m113.5,53.21c-.05.1-.14.18-.28.26-.18.11-.42.21-.7.28-.28.07-.6.11-.96.11-.33,0-.62-.04-.89-.12-.26-.07-.49-.19-.68-.34-.19-.15-.33-.35-.43-.58-.1-.23-.15-.51-.15-.83l.02-2.75c.05-.02.12-.04.22-.05.1-.01.21-.02.33-.02.22,0,.38.04.49.12.11.08.16.23.16.44l-.02,2.25c0,.33.08.56.25.71.17.14.4.22.71.22.2,0,.36-.02.5-.05.14-.04.24-.08.31-.12l.02-3.47c.05-.02.12-.04.22-.05.1-.01.2-.02.32-.02.23,0,.39.04.5.12.1.08.15.23.15.44l-.02,3.1c0,.15-.03.27-.08.36Z"/>
          <path class="cls-7" d="m121.61,55.05c-.05,0-.13,0-.23,0-.1,0-.21-.01-.32-.03-.22-.04-.38-.12-.46-.22-.09-.1-.11-.25-.07-.46l.48-2.41c.05-.25.02-.44-.1-.58-.11-.14-.28-.23-.51-.27-.15-.03-.3-.03-.45,0s-.29.08-.41.15c0,.09,0,.18-.02.27l-.6,3.03c-.05,0-.13,0-.23,0-.1,0-.21-.01-.32-.03-.22-.04-.38-.12-.46-.22-.09-.1-.11-.25-.07-.46l.48-2.41c.05-.25.01-.44-.11-.58-.12-.14-.29-.23-.51-.28-.15-.03-.3-.03-.44-.01-.14.02-.26.05-.35.08l-.67,3.37c-.06,0-.14,0-.23,0s-.2-.01-.32-.03c-.22-.04-.37-.12-.46-.22s-.11-.25-.07-.46l.59-2.98c.03-.14.08-.26.16-.34.08-.08.19-.16.34-.22.21-.09.47-.14.77-.17.3-.03.6-.01.91.05.56.11.99.35,1.28.73.21-.09.43-.16.68-.2.25-.04.53-.03.85.03.24.05.46.12.67.22.2.1.37.23.51.39s.22.35.28.57c.05.22.05.47,0,.75l-.58,2.93Z"/>
          <path class="cls-7" d="m126.98,56.66c-.08.07-.2.12-.35.14-.21.04-.46.04-.75,0-.29-.04-.6-.12-.93-.26-.3-.12-.56-.27-.78-.44-.22-.17-.39-.36-.5-.57-.12-.21-.18-.44-.19-.7,0-.25.05-.53.17-.83l1.04-2.55c.05,0,.13.01.23.04s.2.06.31.1c.2.08.34.18.41.3.07.11.06.27-.02.47l-.85,2.09c-.12.3-.13.55-.03.75.1.19.3.35.58.47.18.07.34.12.48.13.14.02.25.02.33,0l1.31-3.22c.05,0,.13.01.23.04s.2.05.3.1c.21.09.35.18.42.3.07.11.06.27-.02.47l-1.17,2.88c-.05.13-.12.24-.21.31Z"/>
          <path class="cls-7" d="m130.89,59.01c-.14-.01-.29-.04-.46-.09-.17-.05-.34-.13-.53-.24-.24-.15-.45-.32-.63-.52s-.3-.42-.37-.67c-.07-.25-.08-.52-.03-.82s.18-.62.39-.97c.19-.31.4-.56.64-.75.24-.18.5-.3.77-.36s.56-.05.85.01c.29.07.59.19.88.37.28.17.52.36.71.57.19.21.33.41.42.58.06.12.09.24.1.36,0,.12-.03.24-.1.36l-1.88,3.13c-.17.28-.36.48-.58.62-.22.14-.46.22-.7.24-.25.02-.51,0-.78-.09-.27-.08-.54-.2-.81-.36-.28-.17-.51-.34-.69-.52-.18-.18-.3-.33-.36-.45-.11-.22-.11-.43,0-.62.06-.1.14-.18.23-.23.09-.05.17-.08.26-.08.09.17.21.35.37.53.16.19.35.35.58.48.32.2.62.29.87.27.26-.01.47-.16.64-.43l.21-.35Zm-.34-1.02c.16.09.3.15.44.18.14.02.26.03.38.02l1.1-1.83c-.05-.09-.12-.18-.2-.27s-.19-.18-.33-.27c-.3-.18-.59-.23-.88-.16-.29.07-.55.3-.78.68-.12.21-.2.39-.24.56s-.04.32,0,.46.09.26.18.36.2.2.33.28Z"/>
          <path class="cls-7" d="m136.38,63.03c-.1.04-.23.05-.38.02-.21-.03-.45-.11-.72-.23-.26-.12-.53-.3-.81-.53-.25-.21-.46-.43-.61-.65s-.26-.46-.31-.69c-.05-.24-.04-.48.04-.72s.21-.49.42-.74l1.76-2.11c.05.02.12.05.2.1.08.05.17.11.27.19.17.14.27.28.3.41.03.13-.02.28-.16.44l-1.44,1.73c-.21.25-.3.49-.26.7.04.22.17.42.41.62.15.13.29.22.42.27.13.06.23.09.31.1l2.22-2.67c.05.02.12.05.2.1.08.05.17.11.26.18.17.15.28.28.31.41.03.13-.02.27-.16.44l-1.99,2.38c-.09.11-.19.19-.29.23Z"/>
          <path class="cls-7" d="m137.34,63.92c.15-.14.32-.22.51-.22.19,0,.37.07.52.24.15.16.22.33.21.53-.01.19-.09.36-.24.5-.15.14-.31.21-.51.22-.19,0-.36-.07-.52-.23-.16-.16-.23-.34-.22-.53.01-.19.09-.36.24-.5Z"/>
          <path class="cls-7" d="m145.55,70.8c-.43.28-.84.46-1.24.55s-.78.08-1.14,0c-.36-.09-.69-.26-1.01-.51-.32-.25-.6-.57-.86-.96-.06-.09-.12-.19-.19-.3-.07-.11-.13-.22-.19-.34-.06-.12-.12-.25-.17-.37-.05-.13-.09-.25-.12-.38-.07-.32,0-.55.22-.69l3.88-2.55c.09-.06.19-.08.27-.07.09.02.18.06.27.14.2.15.38.33.55.55s.32.43.46.63c.26.4.45.79.56,1.19.11.4.14.78.09,1.15-.05.37-.19.72-.42,1.05-.23.33-.55.64-.96.91Zm-.7-1.05c.28-.19.51-.39.66-.6.16-.22.26-.44.3-.67.04-.23.03-.46-.03-.7-.06-.24-.17-.47-.31-.69-.08-.12-.16-.23-.23-.32-.07-.09-.14-.18-.21-.26l-3.25,2.14c.04.1.09.21.16.33.07.12.14.23.21.34.32.49.71.78,1.18.86s.97-.06,1.53-.43Z"/>
          <path class="cls-7" d="m145.67,73.8c-.26.21-.41.46-.44.73-.04.28.02.58.16.9.11.24.24.45.41.62.16.17.31.3.45.4-.01.1-.04.2-.1.28-.06.09-.13.15-.23.19-.12.05-.24.06-.36.02-.12-.04-.25-.11-.37-.22-.12-.11-.24-.25-.36-.42-.12-.17-.22-.36-.32-.57-.15-.34-.24-.67-.27-.99-.03-.32,0-.62.1-.9s.26-.54.49-.78c.23-.24.53-.43.89-.6.36-.16.69-.24,1.01-.25.31,0,.6.04.86.15.26.11.49.27.69.48.2.21.36.45.48.73.13.28.2.56.21.84.02.28-.02.53-.1.77-.08.24-.22.45-.4.65-.18.19-.4.35-.66.46-.16.07-.3.08-.42.04-.12-.05-.22-.14-.31-.28l-1.41-2.25Zm2.27.14c-.12-.28-.32-.48-.6-.58-.27-.11-.59-.1-.94.03l1.14,1.79c.2-.12.35-.28.45-.5.09-.21.08-.46-.05-.75Z"/>
          <path class="cls-7" d="m147.96,81.64c-.43.12-.8.06-1.13-.19-.33-.25-.58-.68-.75-1.28-.07-.25-.12-.48-.14-.69s-.02-.4.01-.57c.03-.17.08-.31.16-.42s.18-.18.3-.22c.12-.03.22-.04.32,0,.1.03.19.08.27.15-.06.2-.1.42-.13.67-.02.25,0,.51.09.81.07.25.16.43.28.53.12.1.25.14.4.09.25-.07.36-.3.34-.69l-.03-.54c-.02-.48.04-.85.18-1.13.15-.27.39-.46.74-.56.39-.11.76-.04,1.09.2.34.25.58.65.74,1.23.06.22.1.43.12.62.02.19.02.37,0,.52-.03.15-.07.28-.14.38-.07.1-.16.17-.27.2-.11.03-.21.03-.31,0-.1-.03-.18-.06-.24-.12.02-.07.04-.15.05-.25.01-.1.02-.21.02-.32,0-.12,0-.23-.02-.36-.01-.12-.03-.24-.07-.36-.07-.24-.16-.41-.27-.52s-.24-.15-.38-.11c-.1.03-.18.09-.22.19-.05.09-.06.24-.05.44l.02.48c.03.54-.04.95-.2,1.24-.16.29-.42.48-.77.58Z"/>
          <path class="cls-7" d="m151.37,82.62s.05.12.08.21c.03.09.06.2.08.31.04.22.03.39-.04.51-.06.12-.2.19-.4.23l-3.9.66s-.05-.12-.08-.21c-.04-.09-.06-.2-.08-.31-.04-.22-.02-.39.04-.51s.2-.19.4-.23l3.9-.66Zm1.34-.32c.18-.03.35,0,.49.11.15.11.24.26.27.46.03.2,0,.37-.11.52s-.25.23-.43.26c-.19.03-.35,0-.5-.11-.15-.1-.24-.25-.27-.45-.03-.2,0-.37.11-.52.11-.15.25-.24.44-.27Z"/>
          <path class="cls-7" d="m148.18,89.67c-.09-.11-.18-.23-.27-.38-.09-.15-.16-.33-.21-.55-.07-.27-.1-.54-.09-.81s.08-.51.2-.74c.12-.23.31-.43.55-.61.24-.18.56-.32.95-.42.35-.09.68-.12.98-.09s.57.13.8.28.43.35.6.6c.16.25.29.54.38.88.08.32.12.62.11.91,0,.29-.05.52-.11.71-.04.13-.1.24-.18.33-.07.09-.18.15-.32.19l-3.53.93c-.31.08-.59.1-.85.04s-.48-.16-.68-.32-.36-.36-.5-.6c-.14-.24-.24-.52-.32-.82-.08-.32-.13-.6-.13-.85s.02-.44.06-.58c.07-.24.22-.38.43-.44.12-.03.22-.03.32,0,.1.03.18.07.24.12-.06.18-.09.4-.1.64-.01.25.01.5.08.75.1.37.24.63.44.8s.45.21.76.13l.39-.1Zm.47-.97c.05.18.11.32.19.43.08.11.17.21.26.28l2.07-.54c.03-.1.04-.21.05-.33,0-.12-.01-.26-.05-.42-.09-.34-.26-.58-.52-.73-.26-.15-.6-.17-1.03-.06-.23.06-.42.14-.57.23-.14.09-.25.2-.33.32-.07.12-.11.25-.12.39,0,.14,0,.28.04.43Z"/>
          <path class="cls-7" d="m150.75,95.24c.14-.14.23-.34.26-.6.02-.18.02-.35,0-.51-.03-.16-.07-.3-.12-.42l-3.4-.38c0-.06-.01-.13-.02-.23s0-.2,0-.32c.02-.22.08-.38.18-.48.09-.1.24-.13.45-.11l3.02.34c.15.02.27.06.36.14s.17.18.24.32c.11.2.18.45.23.76s.06.65.01,1.01c-.07.65-.27,1.13-.6,1.45s-.76.45-1.32.39l-2.9-.33c0-.05-.01-.13-.02-.23s0-.21,0-.32c.03-.23.08-.39.18-.48.09-.09.24-.13.45-.11l2.38.27c.27.03.48-.02.62-.16Z"/>
        </g>
      </g>
    </g>
  </g>
</svg>